# xmcd CD database file
#
# Track frame offsets:
#	150
#	10707
#	28680
#	50317
#	72841
#	95560
#	113629
#	130225
#	147035
#	171198
#	194794
#	217175
#	232592
#	267931
#	281229
#	302404
#
# Disc length: 4296 seconds
#
# Revision: 0
# Processed by: cddbd v1.5.1PL0 Copyright (c) Steve Scherf et al.
# Submitted via: CDex 1.51
#
DISCID=e210c610
DTITLE=sinfonia - Review
DYEAR=1900
DGENRE=未分類 (日本)
TTITLE0=夏影
TTITLE1=黒雪姫と７人の小悪魔
TTITLE2=never kill more
TTITLE3=Jesus - 堕天に微睡む -
TTITLE4=Sanctuary
TTITLE5=simple plan
TTITLE6=絵空事 - seduce -
TTITLE7=流れる血と黒い翼
TTITLE8=Next Stage
TTITLE9=妖精の森
TTITLE10=play a drop water
TTITLE11=鳥の詩 - final saga battle -
TTITLE12=鳥の詩 - super last battle -
TTITLE13=Jesus - silence -
TTITLE14=Jesus - 叫び -
TTITLE15=Fake Garden
EXTD=
EXTT0=
EXTT1=
EXTT2=
EXTT3=
EXTT4=
EXTT5=
EXTT6=
EXTT7=
EXTT8=
EXTT9=
EXTT10=
EXTT11=
EXTT12=
EXTT13=
EXTT14=
EXTT15=
PLAYORDER=
